<svg xmlns="http://www.w3.org/2000/svg" width="500" height="161" viewBox="0 0 500 161">
<g>
<path d="M 58.54 63.07 C58.73,63.38 59.20,63.61 59.82,63.75 C28.56,64.33 28.55,64.72 31.25,68.26 C32.37,69.73 34.19,69.81 48.72,69.01 C77.48,67.43 111.41,66.80 112.90,67.83 C113.66,68.36 114.03,69.48 113.71,70.31 C112.94,72.32 105.97,72.80 66.55,73.49 C48.98,73.81 34.49,74.18 34.34,74.32 C34.20,74.47 34.35,75.61 34.67,76.85 L 35.26 79.12 L 73.24 78.40 C110.24,77.71 111.20,77.74 110.84,79.59 C110.49,81.40 108.91,81.53 79.49,82.12 C62.44,82.46 46.70,82.80 44.50,82.87 L 40.64 83.01 C40.55,82.78 40.50,82.57 40.50,82.39 C40.50,81.06 39.66,80.40 37.70,80.18 C34.34,79.79 32.41,75.98 34.04,72.93 C34.83,71.46 34.74,71.00 33.69,71.00 C31.49,71.00 29.00,67.59 29.00,64.58 C29.00,62.96 28.11,61.10 26.85,60.08 C25.25,58.79 24.86,57.69 25.33,55.82 C25.95,53.34 26.09,53.31 39.64,52.66 C52.16,52.06 81.58,51.90 102.11,52.13 C75.52,52.19 32.33,52.88 29.82,53.52 C26.85,54.28 25.73,56.13 26.70,58.65 C26.74,58.76 26.78,58.86 26.83,58.96 C27.60,60.40 31.30,60.28 94.25,58.33 C107.34,57.93 115.00,58.05 115.00,58.65 C115.00,59.18 114.44,60.34 113.75,61.23 C112.65,62.65 107.47,62.93 71.25,63.55 C68.82,63.60 66.52,63.63 64.36,63.67 C64.97,63.53 65.52,63.32 65.93,63.06 C66.99,62.39 66.43,61.98 63.75,61.48 C59.95,60.77 57.57,61.49 58.54,63.07 ZM 48.50 73.00 C60.69,74.02 102.93,72.92 105.64,71.51 C110.66,68.91 105.28,68.27 81.50,68.66 C63.81,68.96 57.26,69.43 53.13,70.70 C48.98,71.97 47.12,72.11 44.91,71.27 C42.81,70.48 42.12,70.50 42.28,71.35 C42.40,72.00 45.13,72.72 48.50,73.00 ZM 468.44 155.99 L 331.75 155.88 C262.08,155.83 202.52,155.64 185.41,155.43 C185.61,155.42 185.81,155.39 186.00,155.37 C192.32,154.58 402.59,154.65 442.25,155.46 L 468.44 155.99 ZM 283.91 70.10 C282.75,76.52 281.99,82.44 282.19,85.22 L 282.50 89.50 L 302.50 89.50 L 302.81 93.32 C303.35,99.87 302.95,100.00 282.42,100.00 L 264.08 100.00 L 263.20 99.05 L 280.50 98.84 C290.40,98.72 299.29,98.24 300.25,97.78 C302.27,96.80 302.55,93.95 300.80,92.20 C300.06,91.46 296.47,91.00 291.50,91.00 C286.53,91.00 282.94,90.54 282.20,89.80 C280.78,88.38 280.60,79.72 281.93,77.24 C282.24,76.67 282.99,73.91 283.91,70.10 ZM 105.50 86.13 L 119.50 85.50 L 120.56 79.50 C120.69,78.79 120.82,78.09 120.96,77.40 C120.90,78.20 120.87,79.05 120.87,79.91 C120.85,83.25 120.39,86.26 119.85,86.59 C119.30,86.93 107.08,87.34 92.68,87.51 C78.28,87.68 62.22,88.09 57.00,88.42 C48.12,88.98 47.27,88.87 44.00,86.65 C42.48,85.62 41.18,84.20 40.70,83.14 L 43.50 85.00 C46.28,86.84 48.11,86.98 69.00,86.87 C81.38,86.81 97.80,86.47 105.50,86.13 ZM 74.40 60.96 C75.40,61.32 84.03,61.70 93.58,61.81 C107.49,61.98 110.85,61.77 110.45,60.72 C110.07,59.75 105.99,59.35 94.21,59.13 C78.68,58.85 70.51,59.60 74.40,60.96 ZM 72.28 41.75 C74.06,37.20 79.52,25.28 80.30,24.25 C81.48,22.68 96.58,22.52 97.54,24.06 C97.90,24.65 97.48,25.92 96.60,26.89 C95.94,27.62 95.51,28.76 95.26,30.57 C95.30,27.71 95.20,25.63 95.00,25.52 C94.72,25.37 91.70,24.95 88.28,24.59 L 82.06 23.95 L 79.70 27.72 C77.11,31.86 75.00,37.36 75.00,39.96 C75.00,41.38 76.44,41.65 84.92,41.87 L 94.84 42.11 L 95.00 38.24 L 95.00 43.00 L 83.39 43.00 C74.51,43.00 71.90,42.71 72.28,41.75 ZM 313.00 98.00 C312.99,97.99 312.99,97.99 312.98,97.98 C314.74,98.87 319.59,98.84 338.02,98.70 C362.07,98.51 363.05,98.42 363.63,96.50 C363.96,95.40 364.87,93.78 365.65,92.89 C366.42,92.01 369.25,80.40 371.94,67.11 C375.66,48.67 376.80,41.17 375.56,37.86 C376.80,41.19 375.64,48.81 371.83,67.71 C369.09,81.35 366.31,93.61 365.67,94.97 C363.50,99.54 361.10,99.97 337.25,99.99 C316.32,100.00 314.88,99.88 313.00,98.00 ZM 322.00 134.94 C322.00,145.53 321.62,147.77 320.36,144.51 C320.05,143.68 319.39,143.26 318.90,143.56 C318.39,143.87 318.01,140.24 318.02,135.31 C318.02,129.75 318.36,127.02 318.92,127.91 C319.41,128.68 319.59,130.03 319.31,130.91 C318.93,132.13 319.03,132.19 319.75,131.19 C320.27,130.46 320.50,128.83 320.25,127.55 C320.01,126.28 320.30,124.93 320.91,124.56 C321.67,124.08 322.00,127.19 322.00,134.94 ZM 124.76 42.67 C123.82,42.22 123.39,40.76 123.19,37.52 C122.85,32.13 121.79,30.25 118.36,28.95 C116.94,28.41 116.03,27.09 115.82,25.30 C115.53,22.76 115.13,22.50 111.56,22.50 C107.96,22.50 107.56,22.78 106.78,25.75 C106.75,25.88 106.72,26.01 106.68,26.13 C106.69,25.61 106.57,25.03 106.32,24.40 C105.48,22.21 107.70,21.03 112.69,21.02 C116.68,21.00 116.89,21.15 117.19,24.25 C117.48,27.27 117.73,27.48 120.75,27.17 L 124.00 26.85 L 124.00 34.92 C124.00,39.72 124.19,41.91 124.76,42.67 ZM 401.00 135.38 C401.00,144.76 400.81,145.82 399.09,146.27 C396.67,146.90 395.73,143.08 397.66,140.44 C398.47,139.34 399.00,135.91 399.00,131.81 C399.00,127.94 399.43,125.00 400.00,125.00 C400.60,125.00 401.00,129.13 401.00,135.38 ZM 279.00 135.00 L 279.00 146.00 L 276.50 146.00 C273.75,146.00 273.13,144.55 275.50,143.64 C276.69,143.18 277.00,141.08 277.00,133.53 C277.00,127.84 277.40,124.00 278.00,124.00 C278.61,124.00 279.00,128.33 279.00,135.00 ZM 253.50 85.92 C252.83,94.15 251.15,98.97 248.56,100.16 C246.99,100.87 243.44,100.94 237.86,100.36 C230.29,99.58 229.53,99.31 229.81,97.50 C229.99,96.40 230.28,92.24 230.47,88.25 L 230.70 83.18 L 230.57 88.20 C230.33,96.70 230.63,97.98 232.86,98.04 C233.76,98.07 236.30,98.73 238.50,99.53 C244.29,101.61 247.89,100.17 250.85,94.58 C252.05,92.32 253.19,88.57 253.50,85.92 ZM 390.52 132.40 L 391.90 137.00 L 388.45 137.00 C386.55,137.00 385.00,136.86 385.00,136.68 C385.00,135.40 388.32,126.99 388.68,127.35 C388.93,127.60 389.76,129.87 390.52,132.40 ZM 105.96 27.94 C105.39,28.80 104.57,29.00 102.97,29.00 C100.14,29.00 100.00,29.20 100.00,33.25 C100.01,35.77 100.84,38.87 102.06,40.86 C103.19,42.71 103.95,44.39 103.75,44.59 C103.55,44.78 94.97,45.23 84.69,45.58 C83.65,45.61 82.66,45.65 81.71,45.67 C85.44,45.47 89.35,45.13 92.88,44.67 C100.98,43.62 102.04,43.27 100.63,42.11 C99.46,41.14 99.00,39.09 99.00,34.88 L 99.00 29.00 L 102.39 29.00 C104.05,29.00 105.26,28.63 105.96,27.94 ZM 251.56 133.58 C250.49,134.36 248.35,135.00 246.81,135.00 C244.15,135.00 244.00,134.77 244.00,130.50 L 244.00 126.00 L 248.00 126.00 C250.20,126.00 252.00,126.41 252.00,126.91 C252.00,127.40 251.12,127.58 250.04,127.30 C247.83,126.72 245.00,129.04 245.00,131.43 C245.00,133.35 250.60,133.64 251.28,131.75 C251.53,131.06 252.12,130.87 252.61,131.33 C253.11,131.80 252.65,132.78 251.56,133.58 ZM 47.69 26.90 C45.79,26.39 44.47,25.80 43.59,24.95 L 46.63 25.71 C51.22,26.86 51.47,26.76 53.25,23.23 C54.01,21.73 55.28,19.46 56.07,18.19 C57.36,16.10 57.31,15.74 55.50,14.47 C54.40,13.70 52.96,12.60 52.29,12.03 C51.44,11.31 49.99,10.99 48.57,11.04 C50.73,10.72 53.15,11.33 55.37,13.07 C58.54,15.57 58.56,15.84 55.92,21.97 C53.68,27.16 52.12,28.10 47.69,26.90 ZM 313.86 37.16 C313.96,37.50 314.00,37.87 314.00,38.28 C314.00,42.82 312.15,43.75 301.83,44.40 C296.51,44.73 291.50,45.26 290.69,45.57 C290.30,45.71 289.81,46.65 289.25,48.14 C289.78,46.46 290.23,45.34 290.52,45.05 C291.52,44.05 294.55,43.55 300.29,43.43 C308.98,43.26 312.56,41.97 313.61,38.65 C313.79,38.08 313.89,37.59 313.86,37.16 ZM 304.39 142.75 L 303.65 140.50 L 302.92 143.00 C302.44,144.67 302.17,143.19 302.10,138.55 C302.04,134.69 302.38,132.02 302.85,132.55 C304.18,134.05 306.95,145.00 305.99,145.00 C305.52,145.00 304.80,143.99 304.39,142.75 ZM 86.65 19.17 C86.54,19.04 86.43,18.91 86.33,18.78 C87.29,19.16 89.72,19.28 92.22,19.03 C96.27,18.62 97.56,18.08 97.83,16.68 C98.39,13.73 95.28,11.43 91.89,11.09 C95.45,11.31 99.00,13.30 99.00,16.00 C99.00,20.42 89.90,22.76 86.65,19.17 ZM 454.50 36.68 C457.29,36.41 461.21,36.16 466.94,35.81 C484.24,34.76 485.03,34.79 489.31,36.80 C484.80,34.70 483.14,34.72 468.53,36.92 C464.70,37.50 460.20,37.64 458.53,37.23 C457.13,36.89 455.79,36.71 454.50,36.68 ZM 418.89 137.43 C418.28,137.05 417.38,137.36 416.90,138.12 C416.33,139.02 416.04,137.94 416.05,135.00 C416.06,130.98 416.21,130.69 417.43,132.30 C418.45,133.65 418.93,133.78 419.32,132.80 C419.61,132.09 419.88,132.99 419.92,134.81 C419.97,137.00 419.62,137.89 418.89,137.43 ZM 309.98 138.09 C308.69,142.57 308.36,142.61 307.00,138.50 C306.34,136.50 306.07,134.60 306.40,134.27 C306.73,133.94 307.00,134.22 307.00,134.90 C307.00,135.67 307.74,135.90 308.94,135.52 C310.71,134.96 310.80,135.20 309.98,138.09 ZM 234.54 68.25 C234.84,66.46 235.31,64.28 235.64,63.01 C235.46,64.12 235.27,65.16 235.10,65.99 C234.59,68.46 234.38,70.80 234.62,71.19 C234.86,71.58 234.17,72.37 233.09,72.95 C232.01,73.53 230.54,73.95 229.82,73.88 C227.49,73.68 224.52,72.82 223.80,72.15 C223.70,72.06 223.65,71.71 223.65,71.17 C223.66,71.20 223.67,71.23 223.68,71.25 C223.92,71.66 226.32,72.00 229.01,72.00 C233.89,72.00 233.91,71.99 234.54,68.25 ZM 198.21 42.75 C197.43,41.35 196.15,40.48 194.15,39.68 C189.39,37.77 172.70,37.26 164.15,38.76 C159.96,39.50 156.94,39.55 155.27,38.91 C154.70,38.70 154.13,38.58 153.57,38.56 C156.94,37.97 162.28,37.86 171.16,37.83 C189.29,37.76 195.94,38.38 198.21,42.75 ZM 134.61 53.25 C134.80,51.18 134.83,49.45 134.64,48.73 C133.84,45.67 135.90,38.86 138.26,36.75 C138.40,36.63 138.54,36.51 138.69,36.40 C137.77,37.68 136.14,44.59 134.61,53.25 ZM 381.29 142.02 C380.63,144.52 379.97,144.92 377.79,144.12 C376.63,143.70 376.35,143.05 376.92,142.12 C377.39,141.36 378.28,141.05 378.89,141.43 C379.50,141.81 380.00,141.64 380.00,141.06 C380.00,140.48 380.41,140.00 380.91,140.00 C381.40,140.00 381.58,140.91 381.29,142.02 ZM 315.00 134.89 C315.00,136.64 314.36,138.03 313.38,138.41 C312.09,138.90 311.88,138.57 312.37,136.76 C312.70,135.52 312.98,133.94 312.99,133.25 C312.99,132.56 313.45,132.00 314.00,132.00 C314.55,132.00 315.00,133.30 315.00,134.89 ZM 218.19 91.50 C218.13,91.87 218.06,92.24 217.99,92.63 L 216.72 99.75 L 211.61 100.37 C209.63,100.61 207.65,100.77 205.77,100.86 C211.80,100.26 216.80,97.74 217.46,94.74 C217.60,94.12 217.87,92.92 218.19,91.50 ZM 195.03 100.04 C193.77,99.24 193.75,98.49 194.86,94.80 C195.30,93.32 195.86,90.77 196.33,88.14 C195.76,93.32 195.67,97.70 196.29,99.30 C196.63,100.21 197.40,100.67 199.34,100.87 C197.25,100.74 195.69,100.46 195.03,100.04 ZM 42.84 23.99 C42.23,22.93 42.00,21.51 42.00,19.55 C42.00,16.54 43.16,14.16 44.93,12.68 C44.37,13.79 43.72,16.50 43.41,19.19 L 42.84 23.99 ZM 334.92 136.37 C333.75,137.42 325.00,138.02 325.00,137.06 C325.00,136.45 327.19,136.00 330.17,136.00 C333.01,136.00 335.15,136.17 334.92,136.37 ZM 383.26 40.32 C383.38,42.27 383.50,43.36 384.11,43.88 C384.94,44.58 386.66,44.22 390.50,43.50 C393.40,42.96 394.86,42.92 395.23,45.06 C394.43,44.87 392.00,44.68 389.29,44.62 L 383.50 44.50 L 383.26 40.32 ZM 247.50 138.19 C246.40,138.82 245.17,139.82 244.77,140.41 C244.35,141.03 244.02,140.53 244.02,139.25 C244.00,137.45 244.55,137.01 246.75,137.03 C249.31,137.06 249.36,137.14 247.50,138.19 ZM 277.37 35.19 C279.87,34.51 283.73,34.45 293.50,34.37 C304.12,34.29 309.38,34.45 311.88,35.35 C309.43,34.64 304.35,34.50 294.70,34.50 C284.00,34.50 279.93,34.52 277.37,35.19 ZM 395.11 49.36 C394.85,51.61 394.34,54.61 393.63,58.59 C392.28,66.24 390.94,74.07 390.66,76.00 C390.39,77.93 389.56,82.20 388.81,85.50 C388.07,88.80 387.70,93.29 387.98,95.49 C387.70,93.29 388.07,88.80 388.80,85.50 C389.54,82.20 390.54,76.80 391.03,73.50 C391.52,70.20 392.82,62.57 393.92,56.54 C394.41,53.85 394.83,51.34 395.11,49.36 ZM 433.02 74.92 C433.18,72.55 434.56,66.24 436.13,60.03 C435.51,62.69 434.92,65.40 434.51,67.63 C434.04,70.10 433.51,72.71 433.02,74.92 ZM 226.88 49.63 C226.02,53.00 224.62,61.32 223.97,66.61 C224.58,60.87 225.96,52.39 226.88,49.63 ZM 237.27 52.01 C237.43,50.36 237.33,49.17 236.96,48.50 C237.80,49.18 238.12,50.00 237.64,50.77 C237.54,50.93 237.41,51.38 237.27,52.01 ZM 311.62 96.19 C311.20,95.47 310.92,94.76 310.89,94.25 C310.79,92.62 310.78,90.83 310.82,89.10 C310.85,91.94 311.12,94.73 311.62,96.19 ZM 439.29 48.80 C439.71,47.53 440.09,46.52 440.38,45.89 C441.04,44.50 442.49,42.61 443.98,41.09 C442.12,43.04 440.55,45.62 439.29,48.80 ZM 221.88 81.42 C221.07,81.76 220.51,82.39 220.03,83.53 L 220.50 81.50 L 221.88 81.42 ZM 150.18 39.64 C148.87,40.60 147.79,42.17 147.15,44.21 C147.84,42.02 148.52,40.58 150.18,39.64 ZM 140.02 35.75 C141.79,35.16 144.76,35.00 150.96,35.00 C158.80,35.00 161.33,34.78 162.72,33.74 C161.34,34.78 158.81,35.00 151.04,35.00 C145.61,35.00 141.90,35.25 140.02,35.75 ZM 259.22 92.62 C258.69,90.36 258.88,88.19 260.00,87.50 C259.02,88.10 258.81,90.35 259.22,92.62 ZM 233.20 47.08 C231.48,46.94 229.57,47.10 228.38,47.54 C229.12,47.13 230.18,47.00 231.86,47.00 C232.32,47.00 232.76,47.03 233.20,47.08 ZM 127.49 36.12 C127.08,40.20 126.75,41.98 126.10,42.58 C126.70,41.77 127.12,39.74 127.49,36.12 ZM 124.82 55.34 C124.82,55.96 124.73,56.72 124.57,57.63 C124.41,58.56 124.21,59.85 124.02,61.22 C124.21,59.77 124.41,58.36 124.57,57.29 C124.69,56.51 124.78,55.87 124.82,55.34 ZM 259.98 45.38 C259.54,49.03 258.38,56.20 257.05,63.50 C255.48,72.03 254.03,81.10 253.61,84.78 C253.95,81.52 255.43,72.30 257.04,63.50 C258.38,56.20 259.54,49.03 259.98,45.38 ZM 446.08 39.25 C447.07,38.49 447.91,37.96 449.19,37.56 C448.09,37.98 447.06,38.54 446.08,39.25 ZM 86.75 12.39 C85.81,13.10 85.24,14.23 85.08,15.38 C85.14,14.24 85.69,13.19 86.75,12.39 ZM 236.21 59.35 C236.24,58.72 236.39,57.56 236.61,56.20 C236.59,56.32 236.58,56.44 236.57,56.56 C236.47,57.38 236.35,58.34 236.21,59.35 ZM 429.99 90.50 C430.34,90.02 430.68,88.32 430.79,86.52 C430.73,88.22 430.39,89.98 430.00,90.50 C429.46,91.24 428.98,92.97 428.72,94.68 C428.98,92.97 429.45,91.24 429.99,90.50 ZM 230.76 81.00 L 229.11 81.00 L 230.77 80.90 L 230.76 81.00 ZM 67.80 45.67 C66.59,45.56 66.00,45.38 66.00,45.15 C66.00,45.13 66.00,45.10 66.00,45.07 C66.04,45.33 66.69,45.53 67.80,45.67 ZM 130.89 76.50 C131.45,73.75 132.11,69.93 132.35,68.00 C132.40,67.58 132.48,67.02 132.57,66.37 C132.50,66.92 132.43,67.46 132.36,68.00 C132.11,69.93 131.45,73.75 130.89,76.50 ZM 430.84 85.40 C430.90,84.35 431.06,83.20 431.28,82.20 C431.07,83.29 430.92,84.43 430.84,85.40 ZM 177.86 154.65 C175.04,153.83 172.55,152.76 170.41,151.45 C172.54,152.74 175.02,153.81 177.86,154.65 ZM 122.91 69.33 C123.05,68.53 123.20,67.63 123.32,66.74 C123.21,67.63 123.07,68.52 122.91,69.33 ZM 67.98 39.83 C69.24,37.35 71.12,34.01 73.76,29.56 C71.14,33.97 69.25,37.34 67.98,39.83 Z" fill="rgba(242,15,14,1)"/>
<path d="M 209.00 124.46 C209.00,126.52 206.26,127.09 205.74,125.13 C205.44,123.98 205.91,123.36 207.15,123.26 C208.17,123.19 209.00,123.72 209.00,124.46 Z" fill="rgba(241,197,196,1)"/>
<path d="M 180.50 155.35 C171.45,153.24 165.56,149.19 162.77,143.15 C161.58,140.59 160.19,138.21 159.67,137.86 C158.63,137.15 158.06,124.61 158.79,118.75 L 159.26 115.00 L 310.16 115.00 C443.39,115.00 461.49,115.18 464.73,116.53 C471.14,119.21 475.08,123.00 478.10,129.38 C480.72,134.91 481.00,136.51 481.00,145.87 L 481.00 156.25 L 442.25 155.46 C402.59,154.65 192.32,154.58 186.00,155.37 C184.07,155.61 181.60,155.60 180.50,155.35 ZM 50.42 129.58 C43.60,126.61 41.10,119.11 44.59,112.12 C47.81,105.67 48.34,105.56 80.95,104.90 C97.20,104.56 111.18,103.99 112.00,103.62 C113.78,102.83 118.37,96.04 117.63,95.29 C117.34,95.01 112.02,94.94 105.81,95.14 C99.59,95.34 83.25,95.50 69.50,95.50 C45.52,95.50 44.29,95.41 39.39,93.19 C33.50,90.52 27.33,84.63 26.63,81.00 C25.91,77.23 23.85,71.75 22.34,69.53 C21.60,68.44 21.00,66.68 21.00,65.60 C21.00,64.53 19.36,60.33 17.35,56.27 C15.22,51.94 14.08,48.53 14.60,48.01 C15.10,47.52 22.48,47.04 31.00,46.93 C49.26,46.70 50.30,46.53 49.47,43.91 C49.14,42.85 49.50,40.75 50.27,39.24 C51.05,37.73 52.69,34.47 53.92,32.00 C55.15,29.52 56.82,26.38 57.62,25.00 C58.42,23.62 60.16,20.13 61.49,17.24 C62.81,14.34 64.62,11.70 65.51,11.36 C67.14,10.73 77.81,17.35 78.64,19.51 C78.88,20.12 76.68,24.65 73.76,29.56 C68.23,38.87 66.00,43.36 66.00,45.15 C66.00,45.88 71.81,46.01 84.69,45.58 C94.97,45.23 103.55,44.78 103.75,44.59 C103.95,44.39 103.19,42.71 102.06,40.86 C100.84,38.87 100.01,35.77 100.00,33.25 C100.00,29.20 100.14,29.00 102.97,29.00 C105.48,29.00 106.07,28.50 106.78,25.75 C107.56,22.78 107.96,22.50 111.56,22.50 C115.13,22.50 115.53,22.76 115.82,25.30 C116.03,27.09 116.94,28.41 118.36,28.95 C121.79,30.25 122.85,32.13 123.19,37.52 C123.42,41.17 123.94,42.56 125.14,42.79 C126.49,43.05 126.91,41.84 127.49,36.12 C127.94,31.61 128.78,28.61 129.84,27.64 C132.26,25.46 159.46,24.31 163.00,26.25 C165.76,27.75 165.85,30.34 163.25,33.25 C161.95,34.71 159.92,35.00 150.96,35.00 C142.15,35.00 139.87,35.31 138.26,36.75 C135.90,38.86 133.84,45.67 134.64,48.73 C134.96,49.94 134.67,53.99 134.00,57.72 C133.33,61.45 132.59,66.07 132.35,68.00 C132.11,69.93 131.45,73.75 130.89,76.50 C130.32,79.25 129.49,84.88 129.04,89.00 C128.59,93.12 127.65,97.85 126.95,99.50 C126.25,101.15 125.74,102.81 125.82,103.19 C126.11,104.64 117.44,111.07 114.05,111.92 C112.10,112.41 98.57,113.04 84.00,113.32 C69.43,113.60 56.71,114.14 55.75,114.52 C53.80,115.29 53.37,119.49 55.13,120.58 C56.42,121.38 107.03,121.28 123.50,120.45 C138.50,119.69 142.88,122.07 137.97,128.32 L 135.85 131.00 L 94.68 130.96 C62.48,130.93 52.83,130.63 50.42,129.58 ZM 311.84 96.71 C310.42,94.05 310.50,82.10 311.95,80.65 C312.53,80.07 313.00,77.47 313.00,74.86 C313.00,72.25 313.45,69.84 314.00,69.50 C314.55,69.16 315.00,67.22 315.00,65.19 C315.00,63.16 315.71,58.12 316.58,54.00 C317.44,49.88 318.45,44.75 318.83,42.60 C319.26,40.07 320.42,38.02 322.14,36.74 C324.60,34.91 326.45,34.77 347.80,34.78 C360.45,34.79 371.73,35.10 372.87,35.46 C377.30,36.87 377.18,41.17 371.94,67.11 C369.25,80.40 366.42,92.01 365.65,92.89 C364.87,93.78 363.96,95.40 363.63,96.50 C363.05,98.42 362.07,98.51 338.02,98.70 C313.24,98.89 313.00,98.87 311.84,96.71 ZM 137.40 100.90 C136.60,99.86 137.06,95.87 139.17,85.50 C140.75,77.80 142.21,70.15 142.43,68.50 C143.21,62.49 146.14,47.42 147.15,44.21 C148.52,39.84 151.90,37.63 155.27,38.91 C156.94,39.55 159.96,39.50 164.15,38.76 C172.70,37.26 189.39,37.77 194.15,39.68 C198.37,41.37 199.37,43.37 199.27,50.00 C199.20,54.62 195.90,64.32 193.48,67.02 C192.53,68.07 192.17,70.95 192.30,76.52 C192.55,86.89 190.79,92.83 186.09,97.41 L 182.39 101.03 L 160.44 101.67 C142.25,102.20 138.31,102.06 137.40,100.90 ZM 428.71 98.69 C428.12,97.15 428.94,91.94 430.00,90.50 C430.41,89.95 430.77,88.04 430.80,86.26 C430.84,84.47 431.31,81.55 431.85,79.76 C432.39,77.97 433.59,72.51 434.51,67.63 C435.42,62.75 437.12,55.60 438.29,51.72 C441.81,40.00 448.95,34.89 458.53,37.23 C460.20,37.64 464.70,37.50 468.53,36.92 C483.24,34.70 484.82,34.70 489.40,36.85 C491.79,37.97 494.01,39.59 494.34,40.43 C494.66,41.28 493.34,51.32 491.39,62.74 C489.45,74.16 487.67,85.71 487.44,88.41 C486.61,98.03 483.18,100.49 471.96,99.50 L 464.14 98.80 L 464.49 92.39 C464.69,88.87 465.15,84.61 465.51,82.94 L 466.18 79.89 L 454.58 80.50 L 452.89 88.94 C451.80,94.44 450.59,97.83 449.42,98.69 C446.91,100.52 429.41,100.52 428.71,98.69 ZM 92.68 87.51 C107.08,87.34 119.30,86.93 119.85,86.59 C120.39,86.26 120.85,83.25 120.87,79.91 C120.88,76.56 121.32,73.31 121.85,72.66 C122.37,72.02 123.04,69.25 123.34,66.50 C123.65,63.75 124.20,59.76 124.57,57.63 C125.06,54.86 124.86,53.53 123.87,52.90 C122.27,51.88 59.57,51.70 39.64,52.66 C26.09,53.31 25.95,53.34 25.33,55.82 C24.86,57.69 25.25,58.79 26.85,60.08 C28.11,61.10 29.00,62.96 29.00,64.58 C29.00,67.59 31.49,71.00 33.69,71.00 C34.74,71.00 34.83,71.46 34.04,72.93 C32.41,75.98 34.34,79.79 37.70,80.18 C39.66,80.40 40.50,81.06 40.50,82.39 C40.50,83.42 42.08,85.34 44.00,86.65 C47.27,88.87 48.12,88.98 57.00,88.42 C62.22,88.09 78.28,87.68 92.68,87.51 ZM 196.29 99.30 C195.01,95.98 196.78,80.63 199.53,71.10 C201.59,63.94 202.58,59.87 203.99,52.81 C205.38,45.82 207.76,42.66 214.07,39.47 C218.74,37.10 219.69,37.00 238.34,37.00 C259.78,37.00 260.22,37.12 260.18,43.22 C260.17,45.03 258.76,54.15 257.04,63.50 C255.33,72.85 253.76,82.67 253.56,85.33 C253.36,87.98 252.14,92.15 250.85,94.58 C247.89,100.17 244.29,101.61 238.50,99.53 C236.30,98.73 233.76,98.07 232.86,98.04 C230.63,97.98 230.33,96.70 230.57,88.20 L 230.77 80.90 L 225.63 81.20 L 220.50 81.50 L 219.23 87.00 C218.52,90.03 217.73,93.51 217.46,94.74 C216.70,98.19 210.21,101.00 203.01,101.00 C198.22,101.00 196.80,100.64 196.29,99.30 ZM 391.50 100.13 C388.90,99.57 388.43,98.96 387.98,95.49 C387.70,93.30 388.07,88.80 388.81,85.50 C389.56,82.20 390.39,77.93 390.66,76.00 C390.94,74.07 392.28,66.24 393.63,58.59 C396.34,43.30 396.16,42.45 390.50,43.50 C386.66,44.22 384.94,44.58 384.11,43.88 C383.39,43.27 383.35,41.87 383.20,39.21 L 382.89 33.92 L 407.90 34.30 C435.36,34.71 436.44,34.95 435.60,40.29 C434.92,44.62 433.91,45.20 426.07,45.76 C422.18,46.04 419.00,46.56 419.00,46.93 C419.00,47.29 417.42,55.89 415.48,66.04 C413.55,76.19 411.76,85.85 411.51,87.50 C410.13,96.67 409.67,98.12 407.69,99.51 C405.50,101.04 397.29,101.36 391.50,100.13 ZM 260.75 96.59 C258.85,93.91 258.40,88.49 260.00,87.50 C260.55,87.16 261.00,84.88 261.00,82.44 C261.00,76.91 264.77,54.13 266.09,51.71 C266.63,50.72 266.82,49.52 266.52,49.03 C265.22,46.94 269.37,39.79 273.39,37.18 C277.44,34.54 277.74,34.50 294.70,34.50 C312.57,34.50 314.77,34.98 313.61,38.65 C312.56,41.97 308.98,43.26 300.29,43.43 C294.55,43.55 291.52,44.05 290.52,45.05 C289.73,45.85 287.68,53.03 285.97,61.00 C284.27,68.97 282.45,76.28 281.93,77.24 C280.60,79.72 280.78,88.38 282.20,89.80 C282.94,90.54 286.53,91.00 291.50,91.00 C296.47,91.00 300.06,91.46 300.80,92.20 C302.55,93.95 302.27,96.80 300.25,97.78 C299.29,98.24 290.40,98.72 280.50,98.84 L 262.50 99.06 ZM 345.66 89.75 C346.09,89.06 346.32,87.57 346.17,86.43 C346.02,85.29 346.63,82.21 347.52,79.58 C348.41,76.96 348.94,74.29 348.69,73.64 C348.31,72.63 350.08,60.97 352.47,48.81 C353.18,45.21 353.12,45.11 349.73,44.48 C343.91,43.38 341.48,44.14 341.62,47.00 C341.69,48.38 340.25,58.05 338.43,68.50 L 335.12 87.50 L 337.17 89.25 C339.55,91.28 344.53,91.57 345.66,89.75 ZM 57.10 158.74 C53.63,156.96 51.15,153.11 50.42,148.40 C49.87,144.79 50.16,143.89 52.88,140.79 C58.37,134.54 67.73,135.23 71.97,142.19 C74.51,146.35 74.53,149.62 72.04,153.70 C68.68,159.21 62.24,161.38 57.10,158.74 ZM 115.30 156.04 C111.72,153.86 109.00,149.36 109.00,145.63 C109.00,140.18 117.79,133.98 123.48,135.40 C127.47,136.41 131.88,140.85 132.58,144.58 C134.41,154.35 123.93,161.31 115.30,156.04 ZM 401.00 135.38 C401.00,129.13 400.60,125.00 400.00,125.00 C399.43,125.00 399.00,127.94 399.00,131.81 C399.00,135.91 398.47,139.34 397.66,140.44 C395.73,143.08 396.67,146.90 399.09,146.27 C400.81,145.82 401.00,144.76 401.00,135.50 L 401.00 147.00 L 406.05 147.00 C410.07,147.00 411.59,146.50 413.55,144.55 C415.67,142.42 416.00,141.18 416.00,135.27 C416.00,125.68 414.65,124.00 406.94,124.00 L 401.00 124.00 ZM 425.30 146.04 C429.01,148.30 429.05,148.31 432.43,147.02 C440.66,143.90 441.07,126.06 432.98,123.49 C429.57,122.41 424.12,123.88 422.57,126.30 C418.56,132.52 419.99,142.80 425.30,146.04 ZM 366.30 146.80 C370.68,148.92 374.09,147.65 376.49,143.02 C376.56,142.89 376.62,142.76 376.69,142.64 C376.50,143.30 376.86,143.79 377.79,144.12 C379.16,144.63 379.94,144.65 380.48,143.97 C380.23,144.90 380.08,145.54 380.07,145.75 C379.93,148.31 382.15,146.88 383.56,143.50 C384.84,140.46 385.48,140.00 388.49,140.00 C391.48,140.00 392.22,140.51 393.89,143.75 C397.43,150.57 397.33,144.92 393.73,134.38 C391.05,126.53 389.97,124.50 388.46,124.50 C386.94,124.50 385.93,126.48 383.35,134.50 C382.63,136.74 381.96,138.91 381.41,140.74 C381.36,140.29 381.19,140.00 380.91,140.00 C380.41,140.00 380.00,140.48 380.00,141.06 C380.00,141.64 379.50,141.81 378.89,141.43 C378.31,141.08 377.50,141.33 377.02,141.99 C378.34,139.33 378.18,139.00 376.57,139.00 C375.78,139.00 374.84,139.93 374.48,141.06 C374.12,142.19 372.69,143.64 371.30,144.28 C369.05,145.30 368.50,145.12 366.38,142.66 C361.90,137.45 363.92,125.98 369.31,126.02 C371.94,126.03 373.34,126.89 374.66,129.31 C375.54,130.92 375.79,130.95 376.91,129.61 C377.96,128.34 377.74,127.65 375.63,125.54 C372.10,122.01 367.69,122.16 363.92,125.92 C361.45,128.40 361.00,129.63 361.00,134.02 C361.00,140.05 363.18,145.29 366.30,146.80 ZM 24.43 40.86 C22.11,36.38 23.71,33.56 30.27,30.56 C34.37,28.69 36.59,28.26 40.04,28.70 C48.15,29.72 50.25,34.37 45.45,40.66 C42.91,43.98 42.85,44.00 34.47,44.00 L 26.05 44.00 ZM 75.00 39.96 C75.00,37.36 77.11,31.86 79.70,27.72 L 82.06 23.95 L 88.28 24.59 C91.70,24.95 94.72,25.37 95.00,25.52 C95.28,25.68 95.35,29.47 95.17,33.96 L 94.84 42.11 L 84.92 41.87 C76.44,41.65 75.00,41.38 75.00,39.96 ZM 233.09 72.95 C234.17,72.37 234.86,71.58 234.62,71.19 C234.38,70.80 234.59,68.46 235.10,65.99 C235.60,63.52 236.26,59.28 236.57,56.56 C236.87,53.84 237.36,51.23 237.64,50.77 C238.73,49.01 235.64,47.00 231.86,47.00 C228.75,47.00 227.77,47.46 227.03,49.25 C225.64,52.61 222.99,71.39 223.80,72.15 C224.52,72.82 227.49,73.68 229.82,73.88 C230.54,73.95 232.01,73.53 233.09,72.95 ZM 469.23 67.50 C469.64,65.30 470.24,61.03 470.56,58.00 C470.87,54.97 471.55,52.07 472.06,51.55 C474.46,49.12 471.05,46.00 466.00,46.00 C464.53,46.00 463.56,45.97 462.84,46.38 C461.38,47.21 460.93,49.83 459.40,58.10 C457.78,66.88 457.15,70.18 458.44,71.34 C459.24,72.05 460.76,71.95 463.24,71.80 L 468.47 71.50 ZM 304.39 142.75 C304.80,143.99 305.52,145.00 305.99,145.00 C306.43,145.00 306.08,142.69 305.45,140.04 C305.47,140.11 305.49,140.18 305.51,140.25 C306.49,143.96 307.70,147.00 308.20,147.00 C309.27,147.00 311.12,142.67 312.13,138.07 C312.13,138.70 312.50,138.74 313.38,138.41 C314.12,138.12 314.68,137.24 314.90,136.07 C314.96,137.06 315.00,138.24 315.00,139.58 C315.00,145.20 315.32,147.06 316.25,146.75 C317.13,146.46 317.58,142.99 317.78,135.09 C318.06,124.03 318.03,123.86 315.88,124.18 C314.06,124.45 313.32,125.89 311.42,132.84 C311.07,134.13 310.72,135.38 310.39,136.50 C310.67,135.13 310.31,135.09 308.94,135.52 C307.74,135.90 307.00,135.67 307.00,134.90 C307.00,134.22 306.73,133.94 306.40,134.27 C306.29,134.37 306.25,134.64 306.26,135.03 C303.61,125.00 303.25,124.48 301.34,124.20 C298.54,123.79 298.16,125.73 298.77,137.39 C299.38,149.09 301.26,149.97 302.00,138.92 C302.03,138.45 302.06,138.01 302.09,137.59 C302.09,137.90 302.09,138.22 302.10,138.55 C302.17,143.19 302.44,144.67 302.92,143.00 L 303.65 140.50 ZM 340.88 145.83 C340.95,146.57 341.56,146.98 342.25,146.76 C342.95,146.53 343.63,144.28 343.80,141.67 C344.08,137.44 344.35,137.00 346.60,137.00 C348.50,137.00 349.81,138.17 352.19,142.00 C353.90,144.75 355.66,147.00 356.09,147.00 C357.93,147.00 357.73,145.12 355.44,141.10 L 353.01 136.81 L 355.00 134.27 C357.22,131.45 357.52,128.84 355.96,125.93 C355.09,124.30 353.82,124.00 347.71,124.00 L 340.50 124.00 L 340.63 134.25 C340.70,139.89 340.82,145.10 340.88,145.83 ZM 279.03 135.75 C279.06,146.30 279.21,147.30 280.53,145.56 C281.34,144.49 282.00,142.13 282.00,140.31 C282.00,137.48 282.35,137.00 284.41,137.00 C286.24,137.00 287.59,138.24 289.98,142.13 C292.22,145.76 293.45,146.95 294.21,146.19 C294.96,145.44 294.65,144.07 293.14,141.51 C290.61,137.22 290.48,135.68 292.50,134.00 C294.30,132.51 294.49,126.89 292.80,125.20 C292.12,124.52 288.87,124.00 285.30,124.00 L 279.00 124.00 ZM 48.50 73.00 C45.13,72.72 42.40,72.00 42.28,71.35 C42.12,70.50 42.81,70.48 44.91,71.27 C47.12,72.11 48.98,71.97 53.13,70.70 C57.26,69.43 63.81,68.96 81.50,68.66 C105.28,68.27 110.66,68.91 105.64,71.51 C102.93,72.92 60.69,74.02 48.50,73.00 ZM 240.84 142.83 C241.06,148.77 243.40,147.85 243.80,141.67 L 244.11 137.00 L 248.50 137.00 C253.34,137.00 256.00,134.59 256.00,130.21 C256.00,125.15 254.43,124.00 247.53,124.00 C244.63,124.00 242.86,123.83 241.82,124.62 C240.04,125.97 240.39,130.14 240.84,142.83 ZM 434.44 141.45 C431.99,145.19 429.44,145.43 425.81,142.27 C422.45,139.35 422.36,130.78 425.65,127.49 C427.74,125.40 431.64,125.64 434.00,128.00 C436.48,130.48 436.72,137.97 434.44,141.45 ZM 175.77 58.19 C177.35,48.62 176.73,47.00 171.50,47.00 C167.17,47.00 166.37,48.25 165.52,56.42 C164.85,62.92 164.95,63.45 167.15,65.18 C168.44,66.18 170.60,66.89 171.94,66.75 C174.19,66.52 174.50,65.83 175.77,58.19 ZM 169.07 90.88 C169.69,89.71 170.39,85.67 170.62,81.90 C171.04,75.09 171.03,75.05 168.27,74.44 C166.75,74.11 164.94,73.66 164.25,73.45 C162.01,72.76 160.14,77.36 159.84,84.30 C159.51,91.75 160.26,92.96 165.21,92.98 C166.97,92.99 168.33,92.25 169.07,90.88 ZM 334.92 136.37 C335.15,136.17 333.01,136.00 330.17,136.00 C327.19,136.00 325.00,136.45 325.00,137.06 L 325.00 136.10 L 330.25 135.80 C333.14,135.64 335.50,135.05 335.50,134.50 C335.50,133.95 333.14,133.36 330.25,133.20 C325.17,132.91 325.00,132.80 325.00,129.95 C325.00,127.14 325.20,127.00 329.31,127.00 C331.68,127.00 334.49,126.34 335.56,125.53 C337.32,124.20 336.78,124.06 329.75,124.03 L 322.00 124.00 L 322.00 134.83 C322.00,140.79 322.32,145.99 322.71,146.37 C323.94,147.60 336.30,146.61 336.75,145.25 C337.05,144.34 335.50,144.00 331.08,144.00 L 325.00 144.00 L 325.00 137.06 C325.00,138.02 333.75,137.42 334.92,136.37 ZM 225.21 146.95 C228.74,148.37 229.61,148.20 232.92,145.41 C235.96,142.86 236.00,142.69 236.00,133.41 C236.00,125.82 235.72,124.00 234.54,124.00 C233.38,124.00 233.01,125.93 232.79,133.22 C232.52,141.86 232.35,142.52 230.06,143.66 C228.41,144.48 227.04,144.56 225.81,143.90 C224.26,143.07 224.00,141.58 224.00,133.39 C224.00,124.85 223.82,123.89 222.25,124.19 C220.81,124.46 220.45,125.80 220.21,131.69 C219.87,139.98 221.69,145.54 225.21,146.95 ZM 412.01 140.75 C410.52,143.19 409.32,144.00 407.18,144.00 C405.61,144.00 404.03,143.70 403.67,143.33 C402.93,142.60 402.73,127.60 403.45,126.89 C403.69,126.64 405.67,126.61 407.83,126.81 C410.84,127.10 412.03,127.77 412.88,129.64 C414.54,133.28 414.24,137.10 412.01,140.75 ZM 260.00 124.00 L 260.00 147.00 L 267.00 147.00 C272.56,147.00 274.00,146.69 274.00,145.50 C274.00,144.35 272.72,144.00 268.44,144.00 L 262.88 144.00 L 263.19 140.25 C263.50,136.54 263.55,136.50 268.25,136.20 C271.58,135.98 273.00,135.46 273.00,134.45 C273.00,133.38 271.69,133.00 268.00,133.00 C263.13,133.00 263.00,132.92 263.00,130.05 C263.00,127.21 263.18,127.09 268.17,126.80 C271.19,126.63 273.51,125.98 273.75,125.25 C274.06,124.33 272.30,124.00 267.08,124.00 L 260.00 124.00 ZM 46.63 25.71 L 42.75 24.74 L 43.41 19.19 C43.77,16.13 44.55,13.04 45.15,12.32 C46.46,10.75 50.60,10.58 52.29,12.03 C52.96,12.60 54.40,13.70 55.50,14.47 C57.31,15.74 57.36,16.10 56.07,18.19 C55.28,19.46 54.01,21.73 53.25,23.23 C51.47,26.76 51.22,26.86 46.63,25.71 ZM 209.00 124.46 C209.00,123.72 208.17,123.19 207.15,123.26 C206.75,123.29 206.44,123.38 206.20,123.51 C205.99,123.48 205.66,123.56 205.20,123.73 C202.78,124.62 202.03,126.04 202.02,129.76 C202.00,132.38 202.64,133.42 205.25,135.01 C207.04,136.10 209.23,136.99 210.13,137.00 C211.02,137.00 212.35,137.71 213.07,138.58 C214.69,140.53 213.41,142.93 210.11,144.16 C208.24,144.85 207.28,144.44 205.00,142.00 C203.46,140.35 201.93,139.00 201.60,139.00 C199.99,139.00 201.32,142.47 203.92,145.08 C205.53,146.68 207.82,148.00 209.00,148.00 C211.64,148.00 217.00,142.84 217.00,140.30 C217.00,137.17 214.12,134.11 210.54,133.44 C206.41,132.67 203.27,129.62 204.71,127.77 C205.10,127.26 205.59,126.41 205.95,125.63 C206.76,126.97 209.00,126.33 209.00,124.46 ZM 85.98 18.58 C84.44,17.04 84.83,13.85 86.75,12.39 C90.97,9.19 98.69,12.17 97.83,16.68 C97.56,18.08 96.27,18.62 92.22,19.03 C89.33,19.32 86.52,19.12 85.98,18.58 ZM 74.40 60.96 C70.51,59.60 78.68,58.85 94.21,59.13 C105.99,59.35 110.07,59.75 110.45,60.72 C110.85,61.77 107.49,61.98 93.58,61.81 C84.03,61.70 75.40,61.32 74.40,60.96 ZM 352.17 132.35 C350.34,134.00 345.92,134.59 344.67,133.33 C344.30,132.97 344.00,131.17 344.00,129.33 C344.00,126.28 344.26,126.00 347.07,126.00 C353.25,126.00 355.75,129.11 352.17,132.35 ZM 322.00 134.94 C322.00,134.90 322.00,134.87 322.00,134.83 C322.00,127.16 321.67,124.09 320.91,124.56 C320.30,124.93 320.01,126.28 320.25,127.55 C320.50,128.83 320.27,130.46 319.75,131.19 C319.03,132.19 318.93,132.13 319.31,130.91 C319.59,130.03 319.41,128.68 318.92,127.91 C318.36,127.02 318.02,129.75 318.02,135.31 C318.01,140.24 318.39,143.87 318.90,143.56 C319.39,143.26 320.05,143.68 320.36,144.51 C321.62,147.77 322.00,145.53 322.00,134.94 ZM 289.82 132.72 C289.23,133.42 287.24,134.00 285.38,134.00 C282.10,134.00 282.00,133.88 282.00,130.00 C282.00,126.30 282.21,126.00 284.75,126.02 C289.66,126.04 292.38,129.64 289.82,132.72 ZM 279.00 135.00 C279.00,128.33 278.61,124.00 278.00,124.00 C277.40,124.00 277.00,127.84 277.00,133.53 C277.00,141.08 276.69,143.18 275.50,143.64 C273.13,144.55 273.75,146.00 276.50,146.00 L 279.00 146.00 ZM 252.81 131.76 C252.80,131.59 252.74,131.45 252.61,131.33 C252.12,130.87 251.53,131.06 251.28,131.75 C250.60,133.64 245.00,133.35 245.00,131.43 C245.00,129.04 247.83,126.72 250.04,127.30 C251.06,127.57 251.91,127.42 251.99,126.98 C252.17,127.16 252.31,127.36 252.39,127.58 C253.00,129.17 253.13,130.61 252.81,131.76 ZM 211.25 127.59 C212.49,128.90 213.92,129.83 214.44,129.67 C217.30,128.77 213.90,123.00 210.50,123.00 C208.35,123.00 208.65,124.85 211.25,127.59 ZM 418.89 137.43 C419.62,137.89 419.97,137.00 419.92,134.81 C419.88,132.99 419.61,132.09 419.32,132.80 C418.93,133.78 418.45,133.65 417.43,132.30 C416.21,130.69 416.06,130.98 416.05,135.00 C416.04,137.94 416.33,139.02 416.90,138.12 C417.38,137.36 418.28,137.05 418.89,137.43 ZM 58.54 63.07 C57.57,61.49 59.95,60.77 63.75,61.48 C66.43,61.98 66.99,62.39 65.93,63.06 C64.05,64.25 59.28,64.25 58.54,63.07 ZM 247.50 138.19 C249.36,137.14 249.31,137.06 246.75,137.03 C244.55,137.01 244.00,137.45 244.02,139.25 C244.02,140.53 244.35,141.03 244.77,140.41 C245.17,139.82 246.40,138.82 247.50,138.19 ZM 251.56 133.58 C251.79,133.41 251.99,133.24 252.16,133.06 C251.87,133.42 251.51,133.73 251.07,133.96 C250.56,134.24 249.83,134.49 249.06,134.67 C250.03,134.41 250.96,134.02 251.56,133.58 ZM 303.10 132.92 C303.41,133.18 303.82,134.27 304.39,136.19 C303.94,134.79 303.48,133.58 303.10,132.92 ZM 312.48 136.25 C312.62,135.39 312.76,134.67 312.91,134.08 C312.82,134.79 312.64,135.70 312.43,136.51 C312.45,136.42 312.46,136.34 312.48,136.25 ZM 308.64 141.69 C308.56,141.77 308.44,141.68 308.29,141.44 C308.50,141.60 308.69,141.51 308.90,141.16 C308.78,141.45 308.70,141.64 308.64,141.69 ZM 246.64 135.00 C246.61,135.00 246.59,135.00 246.57,135.00 C245.68,135.00 245.10,134.95 244.72,134.68 C245.11,134.95 245.71,135.00 246.64,135.00 Z" fill="rgba(250,2,2,1)"/>
<path d="M 203.92 145.08 C201.32,142.47 199.99,139.00 201.60,139.00 C201.93,139.00 203.46,140.35 205.00,142.00 C207.28,144.44 208.24,144.85 210.11,144.16 C213.41,142.93 214.69,140.53 213.07,138.58 C212.35,137.71 211.02,137.00 210.13,137.00 C209.23,136.99 207.04,136.10 205.25,135.01 C202.64,133.42 202.00,132.38 202.02,129.76 C202.03,126.04 202.78,124.62 205.20,123.73 C206.49,123.25 206.75,123.51 206.29,124.80 C205.96,125.74 205.25,127.07 204.71,127.77 C203.27,129.62 206.41,132.67 210.54,133.44 C214.12,134.11 217.00,137.17 217.00,140.30 C217.00,142.84 211.64,148.00 209.00,148.00 C207.82,148.00 205.53,146.68 203.92,145.08 ZM 225.21 146.95 C221.69,145.54 219.87,139.98 220.21,131.69 C220.45,125.80 220.81,124.46 222.25,124.19 C223.82,123.89 224.00,124.85 224.00,133.39 C224.00,141.58 224.26,143.07 225.81,143.90 C227.04,144.56 228.41,144.48 230.06,143.66 C232.35,142.52 232.52,141.86 232.79,133.22 C233.01,125.93 233.38,124.00 234.54,124.00 C235.72,124.00 236.00,125.82 236.00,133.41 C236.00,142.69 235.96,142.86 232.92,145.41 C229.61,148.20 228.74,148.37 225.21,146.95 ZM 366.30 146.80 C363.18,145.29 361.00,140.05 361.00,134.02 C361.00,129.63 361.45,128.40 363.92,125.92 C367.69,122.16 372.10,122.01 375.63,125.54 C377.74,127.65 377.96,128.34 376.91,129.61 C375.79,130.95 375.54,130.92 374.66,129.31 C373.34,126.89 371.94,126.03 369.31,126.02 C363.92,125.98 361.90,137.45 366.38,142.66 C368.50,145.12 369.05,145.30 371.30,144.28 C372.69,143.64 374.12,142.19 374.48,141.06 C374.84,139.93 375.78,139.00 376.57,139.00 C378.36,139.00 378.36,139.41 376.49,143.02 C374.09,147.65 370.68,148.92 366.30,146.80 ZM 425.30 146.04 C419.99,142.80 418.56,132.52 422.57,126.30 C424.12,123.88 429.57,122.41 432.98,123.49 C441.07,126.06 440.66,143.90 432.43,147.02 C429.05,148.31 429.01,148.30 425.30,146.04 ZM 434.44 141.45 C436.72,137.97 436.48,130.48 434.00,128.00 C431.64,125.64 427.74,125.40 425.65,127.49 C422.36,130.78 422.45,139.35 425.81,142.27 C429.44,145.43 431.99,145.19 434.44,141.45 ZM 240.84 142.83 C240.12,122.72 239.66,124.00 247.53,124.00 C254.43,124.00 256.00,125.15 256.00,130.21 C256.00,134.59 253.34,137.00 248.50,137.00 L 244.11 137.00 L 243.80 141.67 C243.40,147.85 241.06,148.77 240.84,142.83 ZM 251.07 133.96 C253.01,132.92 253.52,130.51 252.39,127.58 C251.98,126.51 250.52,126.00 247.89,126.00 L 244.00 126.00 L 244.00 130.50 C244.00,134.66 244.19,135.00 246.57,135.00 C247.98,135.00 250.00,134.53 251.07,133.96 ZM 260.00 135.50 L 260.00 124.00 L 267.08 124.00 C272.30,124.00 274.06,124.33 273.75,125.25 C273.51,125.98 271.19,126.63 268.17,126.80 C263.18,127.09 263.00,127.21 263.00,130.05 C263.00,132.92 263.13,133.00 268.00,133.00 C271.69,133.00 273.00,133.38 273.00,134.45 C273.00,135.46 271.58,135.98 268.25,136.20 C263.55,136.50 263.50,136.54 263.19,140.25 L 262.88 144.00 L 268.44 144.00 C272.72,144.00 274.00,144.35 274.00,145.50 C274.00,146.69 272.56,147.00 267.00,147.00 L 260.00 147.00 L 260.00 135.50 ZM 279.03 135.75 L 279.00 124.00 L 285.30 124.00 C288.87,124.00 292.12,124.52 292.80,125.20 C294.49,126.89 294.30,132.51 292.50,134.00 C290.48,135.68 290.61,137.22 293.14,141.51 C294.65,144.07 294.96,145.44 294.21,146.19 C293.45,146.95 292.22,145.76 289.98,142.13 C287.59,138.24 286.24,137.00 284.41,137.00 C282.35,137.00 282.00,137.48 282.00,140.31 C282.00,142.13 281.34,144.49 280.53,145.56 C279.21,147.30 279.06,146.30 279.03,135.75 ZM 289.82 132.72 C292.38,129.64 289.66,126.04 284.75,126.02 C282.21,126.00 282.00,126.30 282.00,130.00 C282.00,133.88 282.10,134.00 285.38,134.00 C287.24,134.00 289.23,133.42 289.82,132.72 ZM 298.77 137.39 C298.16,125.73 298.54,123.79 301.34,124.20 C303.42,124.50 303.66,125.09 307.00,137.85 C307.63,140.24 308.37,141.97 308.64,141.69 C308.92,141.41 310.17,137.43 311.42,132.84 C313.32,125.89 314.06,124.45 315.88,124.18 C318.03,123.86 318.06,124.03 317.78,135.09 C317.58,142.99 317.13,146.46 316.25,146.75 C315.32,147.06 315.00,145.20 315.00,139.58 C315.00,131.33 313.59,129.47 312.48,136.25 C311.62,141.47 309.42,147.00 308.20,147.00 C307.70,147.00 306.49,143.96 305.51,140.25 C302.97,130.70 302.56,130.55 302.00,138.92 C301.26,149.97 299.38,149.09 298.77,137.39 ZM 322.71 146.37 C322.32,145.99 322.00,140.79 322.00,134.83 L 322.00 124.00 L 329.75 124.03 C336.78,124.06 337.32,124.20 335.56,125.53 C334.49,126.34 331.68,127.00 329.31,127.00 C325.20,127.00 325.00,127.14 325.00,129.95 C325.00,132.80 325.17,132.91 330.25,133.20 C333.14,133.36 335.50,133.95 335.50,134.50 C335.50,135.05 333.14,135.64 330.25,135.80 L 325.00 136.10 L 325.00 140.05 L 325.00 144.00 L 331.08 144.00 C335.50,144.00 337.05,144.34 336.75,145.25 C336.30,146.61 323.94,147.60 322.71,146.37 ZM 340.88 145.83 C340.82,145.10 340.70,139.89 340.63,134.25 L 340.50 124.00 L 347.71 124.00 C353.82,124.00 355.09,124.30 355.96,125.93 C357.52,128.84 357.22,131.45 355.00,134.27 L 353.01 136.81 L 355.44 141.10 C357.73,145.12 357.93,147.00 356.09,147.00 C355.66,147.00 353.90,144.75 352.19,142.00 C349.81,138.17 348.50,137.00 346.60,137.00 C344.35,137.00 344.08,137.44 343.80,141.67 C343.63,144.28 342.95,146.53 342.25,146.76 C341.56,146.98 340.95,146.57 340.88,145.83 ZM 352.17 132.35 C355.75,129.11 353.25,126.00 347.07,126.00 C344.26,126.00 344.00,126.28 344.00,129.33 C344.00,131.17 344.30,132.97 344.67,133.33 C345.92,134.59 350.34,134.00 352.17,132.35 ZM 380.07 145.75 C380.11,145.06 381.58,140.00 383.35,134.50 C385.93,126.48 386.94,124.50 388.46,124.50 C389.97,124.50 391.05,126.53 393.73,134.38 C397.33,144.92 397.43,150.57 393.89,143.75 C392.22,140.51 391.48,140.00 388.49,140.00 C385.48,140.00 384.84,140.46 383.56,143.50 C382.15,146.88 379.93,148.31 380.07,145.75 ZM 390.52 132.40 C389.76,129.87 388.93,127.60 388.68,127.35 C388.32,126.99 385.00,135.40 385.00,136.68 C385.00,136.86 386.55,137.00 388.45,137.00 L 391.90 137.00 L 390.52 132.40 ZM 401.00 135.50 L 401.00 124.00 L 406.94 124.00 C414.65,124.00 416.00,125.68 416.00,135.27 C416.00,141.18 415.67,142.42 413.55,144.55 C411.59,146.50 410.07,147.00 406.05,147.00 L 401.00 147.00 L 401.00 135.50 ZM 412.01 140.75 C414.24,137.10 414.54,133.28 412.88,129.64 C412.03,127.77 410.84,127.10 407.83,126.81 C405.67,126.61 403.69,126.64 403.45,126.89 C402.73,127.60 402.93,142.60 403.67,143.33 C404.03,143.70 405.61,144.00 407.18,144.00 C409.32,144.00 410.52,143.19 412.01,140.75 ZM 211.25 127.59 C208.65,124.85 208.35,123.00 210.50,123.00 C213.90,123.00 217.30,128.77 214.44,129.67 C213.92,129.83 212.49,128.90 211.25,127.59 Z" fill="rgba(253,249,249,1)"/>
</g>
</svg>